<?xml version="1.0" encoding="utf-8"?>
<!-- Generator: Adobe Illustrator 25.0.0, SVG Export Plug-In . SVG Version: 6.00 Build 0)  -->
<svg version="1.1" id="レイヤー_1" xmlns="http://www.w3.org/2000/svg" xmlns:xlink="http://www.w3.org/1999/xlink" x="0px"
	 y="0px" width="337.5px" height="288.8px" viewBox="0 0 337.5 288.8" style="enable-background:new 0 0 337.5 288.8;"
	 xml:space="preserve">
<g>
	<g>
		<path d="M81,142.8c0,39.2-11.3,65.4-50.9,83.4l-1-1.2c15.3-12.5,24.5-25.4,29.4-44.5c-13.2,8.3-26.4,15.6-40.5,22.4
			c-2.6,1.3-3.8,1.8-5,1.8c-1.4,0-2.6-0.7-3.6-2.5c-3.3-5.8-6.6-12.8-9.2-19.4l0.9-1.2c5-0.2,9.9-0.5,14.2-0.8
			c2.8-0.3,5.7-0.7,8.5-1v-42.5c-6.6,0.2-12.7,0.5-18.2,1.2l-1.6-5.6c6.4,0.7,12.9,1,19.8,1.2V91.5c-8.7,0.2-15.3,0.7-21.4,1.3
			l-1.6-5.6c9.2,1,18.6,1.3,32.7,1.3h9.4C51.1,77.2,53,75.7,54.4,75.7c1.6,0,3.3,1,8.9,5.6c6.6,5.3,7.3,6.6,7.3,8
			c0,1.7-0.9,2.2-3.5,2.2H48.1c-0.3,2.5-1.7,3.8-5,4.7v36.4c5.9-8.5,6.9-9.6,8.3-9.6c1.4,0,3.1,1.3,6.8,4.5c1.7,1.5,3.1,2.7,4.2,3.8
			v-16.3c0-11.3-0.2-15.1-1.4-18.1l1.2-1.2c16.2,4,21,6,22.4,7.5h11.8V78.1c0-4.3-0.7-7.3-1.7-8.5l1.2-1.2c21.9,2,26.1,3.8,26.1,6
			c0,1.8-0.9,3.3-5.9,5v6.1h15.6c8-10.6,9.9-12.6,11.5-12.6c1.7,0,2.8,0.5,10.2,6.6c5,4.2,5.4,5.1,5.4,6.5c0,2-0.9,2.5-3.8,2.5
			h-38.9v14.6h23.8c6.4-7.3,7.8-8.3,8.9-8.3c1.2,0,3,0.7,10.4,6.8c5.6,4.6,6.4,6.1,6.4,7.6c0,3.3-2.8,4-9.9,5
			c-6.8,5.5-11.8,9.3-17.9,13.3l-1.2-1c0.2-0.8,0.5-1.5,0.7-2.2l-22.9,2.8v10.5c0,3.8,0.7,4.3,12.5,4.3c13.6,0,16.9-1.5,20.2-3.5
			c3-1.8,5.2-5.5,8.2-12.5l1.6,0.5c-0.5,4.5-0.7,7.6-0.7,9.1c0,1.8,0.3,2.7,2.8,4.3c1.9,1.3,2.8,2.7,2.8,5.1c0,4.5-2.1,7.1-7.3,9
			c-5.9,2-8.2,3-32.5,3c-23.1,0-26.2-2.3-26.2-15.6l0.2-12.1L81,131.2V142.8z M43.1,137.2V177c5.6-0.8,11.1-1.7,16.5-2.8
			c1.9-10,2.8-21.4,2.8-35.4v-1.7H43.1z M88.3,162.4c20.2,4.8,25.5,6.5,25.5,9.6c0,1.7-1.4,3-6.4,3.8c-2.6,32.1-16.5,45.3-49.5,51.8
			l-0.5-1.7c22.9-11.1,29.9-29.9,29.9-53.6c0-4.6,0-6.8-0.5-8.6L88.3,162.4z M95.9,126.4v-11.5c0-4.2-0.3-7-1-8.1l0.7-0.7H84.6
			c-0.5,0.7-1.6,1.3-3.6,2.2v19.9L95.9,126.4z M117.8,123.7c5.2-9,7.1-11.1,8.3-11.1c1.4,0,3.1,0.5,9,4.6c1.4,1,2.6,1.8,3.3,2.5
			c1.2-4.5,1.9-8.5,2.8-13.6h-40.3c15.5,1.7,18.9,3.3,18.9,5.1c0,1.5-0.9,2.7-5.6,4v9L117.8,123.7z M118.3,175.9
			c0-5.5-0.2-8.5-1.6-11.3l1.2-1.2c23.8,3,26.6,4.6,26.6,7.5c0,2-1.6,2.8-6.6,4.3v25.7c0,4.3,0.9,4.7,5.9,4.7c6.4,0,7.5-1.2,8.7-3
			c1.2-1.8,3.5-6.8,6.3-14.4l1.7,0.3c-0.7,5.8-0.9,10-0.9,11.3c0,2.3,1.2,4.3,3.8,6.1c2.1,1.7,3,3.7,3,6.1c0,4.5-2.3,6.6-5.7,8.5
			c-3.6,2-10.2,2.7-21.4,2.7c-20.5,0-21.5-1.8-21.5-14.4l0.5-27.4V175.9z"/>
		<path d="M201.9,140.5c-7.8,0.2-14.8,0.5-21.2,1.3l-1.6-5.6c7.3,0.8,14.8,1.2,22.8,1.3V93.7c-10.4,0.2-17.9,0.5-24.7,1.3l-1.6-5.6
			c9.2,1,18.6,1.3,32.7,1.3h16.9c8.5-11.3,10.4-12.8,11.6-12.8c1.2,0,3.3,1,8.9,5.6c6.6,5.3,7.3,6.6,7.3,8c0,1.7-0.9,2.2-3.5,2.2
			h-23.1c-0.3,2.3-1.6,3.5-4.9,4.3v39.5h1.2c7.5-10.8,9.2-12.5,10.4-12.5c1.6,0,3.1,0.8,7.8,5.3c5.6,5.3,6.6,6.6,6.6,8
			c0,1.7-0.9,2.2-3.5,2.2h-22.6v41.4c8.2-1.3,17.2-3,26.4-5l0.7,1.5c-20,12.8-34.6,21.1-54.6,30.1c-3.3,1.5-5,1.7-6.3,1.7
			c-1.4,0-2.3-0.7-3.3-2.7c-3.3-5.8-6.3-12.8-8.5-19.6l0.9-1.3c5.6-0.2,11.5-0.5,17-1c2.4-0.2,5.2-0.5,8-0.8V140.5z M271.7,216.9
			c0,5.3-4.5,8.3-15.3,8.3c-5.2,0-6.1-0.7-6.1-5.6l1.4-74.4v-32.9c0-7.6-0.5-11.1-1.7-13.8l1.2-1.2c15.3,4.2,21.2,6.5,23.5,8h0.5
			c2.4-10.5,3.6-21.4,4.5-29.4c0.3-3.7,0.3-5.5-0.3-7.3l1.4-1.2c23.5,4.8,28.7,7.3,28.7,9.6c0,2.5-1.6,3.5-7.3,4.5
			c-5.4,7.5-11.8,16.6-18.4,23.7h22.9c7.1-8.5,8.5-9.6,10.4-9.6c2.1,0,4,0.8,11.1,6.1c7.3,5.5,9.4,7.6,9.4,9.8c0,2-1.2,3-6.4,5v31.1
			l1.4,65.4c0,7.5-4,10.8-16,10.8c-5.7,0-6.6-0.7-6.6-4.8v-11.8h-38.2V216.9z M309.9,152.8v-44.5h-34.2c-0.3,1-1.6,1.7-4,2.5v42
			H309.9z M271.7,204.3h38.2v-48.5h-38.2V204.3z"/>
	</g>
	<g>
		<path d="M107.4,34.9l-9.7-11.9v11.9h-4V0h4v21.5l9.1-8.9h5.2l-10.4,9.7l10.9,12.5H107.4z"/>
		<path d="M131.2,35.6c-6.9,0-11.9-5.1-11.9-11.8c0-6.7,5-11.8,11.9-11.8c6.9,0,11.9,5.1,11.9,11.8
			C143.1,30.5,138.1,35.6,131.2,35.6z M139.2,23.8c0-4.7-3.1-8.5-8-8.5c-4.8,0-8,3.7-8,8.5c0,4.8,3.2,8.5,8,8.5
			C136,32.2,139.2,28.6,139.2,23.8z"/>
		<path d="M166.5,34.9V20c0-2.9-1.9-4.9-5.2-4.9c-2.5,0-4.7,1.4-5.3,3.8v15.9h-3.9V0h3.9v13.9c1.4-1.2,3.4-2,5.7-2
			c6.2,0,8.7,3.8,8.7,7.6v15.4H166.5z"/>
		<path d="M194.8,34.9v-0.9c-2.4,1.3-4.8,1.5-6.3,1.5c-6,0-9.3-3-9.3-6.9c0-3.6,2.8-7.7,10.8-7.7c1.5,0,3.3,0.1,4.7,0.4v-1.9
			c0-2.8-2.6-4-6-4c-2.1,0-4.4,0.4-6.7,1.1V13c2.1-0.7,4.5-1.1,6.8-1.1c5.2,0,9.8,2,9.8,6.8v16.1H194.8z M194.8,24.6
			c-1.5-0.5-3.3-0.6-4.7-0.6c-6.4,0-7.1,3-7.1,4.3c0,2.5,2.1,4.1,6,4.1c2.5,0,4.4-0.8,5.7-1.7V24.6z"/>
		<path d="M222.7,34.9L213,22.9v11.9h-4V0h4v21.5l9.1-8.9h5.2l-10.4,9.7l10.9,12.5H222.7z"/>
		<path d="M250.3,34.9v-1.1c-1.4,1.1-3.4,1.9-5.7,1.9c-6.3,0-8.7-3.8-8.7-7.5V12.7h3.9v14.8c0,2.9,1.7,4.9,5.1,4.9
			c2.4,0,4.7-1.4,5.3-3.7V12.7h3.9v22.2H250.3z"/>
	</g>
	<g>
		<path d="M71.9,271.6h12v5.9h-12V271.6z"/>
		<path d="M106.5,251.4l10.8,37.3h-8.7l-2.1-7.7H95.4l-2.2,7.7h-7.1l11-37.3H106.5z M97.3,274.2h7.3l-3.6-13.1L97.3,274.2z"/>
		<path d="M137.7,288.8l-8.5-30.5v30.5h-6.7v-37.3H135l6,22.4l6.3-22.4H160v37.3h-8.1v-30.5l-8.6,30.5H137.7z"/>
		<path d="M168.4,251.4h16c2.9,0,5,0.4,6.5,1.1c1.4,0.8,2.6,1.9,3.6,3.3c0.9,1.4,1.4,3.2,1.4,5.2c0,4.1-2.1,6.9-6.2,8.3
			c2.4,0.6,4.2,1.7,5.4,3.5c1.2,1.7,1.8,3.6,1.8,5.7c0,2.8-1,5.2-2.9,7.2c-1.9,2-5.1,3.1-9.5,3.1h-16V251.4z M176.4,258v8.2h6.1
			c2.2,0,3.6-0.5,4.2-1.4s0.9-1.9,0.9-2.8c0-0.9-0.2-1.8-0.7-2.4c-0.5-0.7-1-1.1-1.6-1.3c-0.6-0.2-1.7-0.3-3.4-0.3H176.4z
			 M176.4,272.8v9h6.2c2.1,0,3.6-0.4,4.5-1.2c0.9-0.8,1.3-1.9,1.3-3.4c0-1.2-0.4-2.2-1.3-3.1c-0.8-0.9-2.2-1.3-4.2-1.3H176.4z"/>
		<path d="M228.1,258.5h-16.4v7.7h12.9v7h-12.9v8.2h16.4v7.4h-24.5v-37.3h24.5V258.5z"/>
		<path d="M242.5,274v14.8h-8.1v-37.3h15.1c2.8,0,5,0.4,6.7,1.1c1.7,0.7,3.1,2,4.2,3.9c1.1,1.9,1.7,4,1.7,6.3c0,4.5-2,7.7-6,9.7
			l6.3,16.5h-8.9l-5.3-14.8H242.5z M242.5,258.1v9.5h4.9c1.6,0,2.8-0.1,3.5-0.4c0.7-0.2,1.4-0.8,2-1.6c0.6-0.8,0.9-1.8,0.9-2.9
			c0-1-0.3-2-0.9-2.8c-0.6-0.8-1.2-1.3-1.9-1.5c-0.7-0.2-1.9-0.3-3.8-0.3H242.5z"/>
		<path d="M267,271.6h12v5.9h-12V271.6z"/>
	</g>
</g>
</svg>
